<mxfile host="65bd71144e">
    <diagram id="WHtTDJSVfnH05FcJVf9x" name="overview">
        <mxGraphModel dx="1292" dy="816" grid="0" gridSize="10" guides="1" tooltips="1" connect="1" arrows="1" fold="1" page="0" pageScale="1" pageWidth="850" pageHeight="1100" math="0" shadow="0">
            <root>
                <mxCell id="0"/>
                <mxCell id="1" parent="0"/>
                <mxCell id="rMj7Xm5Ce88Mk3VK5p0u-22" value="" style="rounded=0;whiteSpace=wrap;html=1;sketch=1;dashed=1;strokeColor=#CCCCCC;fillColor=none;" parent="1" vertex="1">
                    <mxGeometry x="-139" y="98" width="860" height="490" as="geometry"/>
                </mxCell>
                <mxCell id="rMj7Xm5Ce88Mk3VK5p0u-16" value="" style="rounded=0;whiteSpace=wrap;html=1;sketch=1;dashed=1;strokeColor=#CCCCCC;fillColor=none;" parent="1" vertex="1">
                    <mxGeometry x="159" y="147" width="222" height="412" as="geometry"/>
                </mxCell>
                <mxCell id="rMj7Xm5Ce88Mk3VK5p0u-1" value="" style="rounded=0;whiteSpace=wrap;html=1;sketch=1;dashed=1;strokeColor=#CCCCCC;fillColor=none;" parent="1" vertex="1">
                    <mxGeometry x="459" y="145" width="197" height="412" as="geometry"/>
                </mxCell>
                <mxCell id="rMj7Xm5Ce88Mk3VK5p0u-2" style="edgeStyle=none;html=1;" parent="1" source="rMj7Xm5Ce88Mk3VK5p0u-14" target="rMj7Xm5Ce88Mk3VK5p0u-4" edge="1">
                    <mxGeometry relative="1" as="geometry">
                        <mxPoint x="407.999112850026" y="332" as="sourcePoint"/>
                    </mxGeometry>
                </mxCell>
                <mxCell id="rMj7Xm5Ce88Mk3VK5p0u-4" value="Bucket" style="outlineConnect=0;fontColor=#232F3E;gradientColor=none;fillColor=#3F8624;strokeColor=none;dashed=0;verticalLabelPosition=bottom;verticalAlign=top;align=center;html=1;fontSize=12;fontStyle=0;aspect=fixed;pointerEvents=1;shape=mxgraph.aws4.bucket;" parent="1" vertex="1">
                    <mxGeometry x="520" y="293" width="75" height="78" as="geometry"/>
                </mxCell>
                <mxCell id="rMj7Xm5Ce88Mk3VK5p0u-7" style="edgeStyle=none;html=1;" parent="1" source="rMj7Xm5Ce88Mk3VK5p0u-9" target="rMj7Xm5Ce88Mk3VK5p0u-14" edge="1">
                    <mxGeometry relative="1" as="geometry">
                        <mxPoint x="-163" y="313" as="sourcePoint"/>
                        <mxPoint x="160" y="332" as="targetPoint"/>
                    </mxGeometry>
                </mxCell>
                <mxCell id="rMj7Xm5Ce88Mk3VK5p0u-8" value="" style="group" parent="1" vertex="1" connectable="0">
                    <mxGeometry x="-65" y="285" width="115" height="94" as="geometry"/>
                </mxCell>
                <mxCell id="rMj7Xm5Ce88Mk3VK5p0u-9" value="" style="rounded=0;whiteSpace=wrap;html=1;sketch=1;curveFitting=1;jiggle=2;" parent="rMj7Xm5Ce88Mk3VK5p0u-8" vertex="1">
                    <mxGeometry width="115" height="94" as="geometry"/>
                </mxCell>
                <mxCell id="rMj7Xm5Ce88Mk3VK5p0u-10" value="" style="shape=image;verticalLabelPosition=bottom;labelBackgroundColor=default;verticalAlign=top;aspect=fixed;imageAspect=0;image=https://seeklogo.com/images/P/prometheus-monitoring-system-logo-3C07B67C00-seeklogo.com.png;" parent="rMj7Xm5Ce88Mk3VK5p0u-8" vertex="1">
                    <mxGeometry x="16" y="9" width="86.05" height="74" as="geometry"/>
                </mxCell>
                <mxCell id="rMj7Xm5Ce88Mk3VK5p0u-11" value="" style="shape=image;verticalLabelPosition=bottom;labelBackgroundColor=default;verticalAlign=top;aspect=fixed;imageAspect=0;image=https://support.localstack.cloud/hs-fs/hubfs/LocalStack%20logos/localstack-logo-horizontal-color.png?width=468&amp;height=178&amp;name=localstack-logo-horizontal-color.png;" parent="1" vertex="1">
                    <mxGeometry x="466.79" y="145" width="181.42" height="69" as="geometry"/>
                </mxCell>
                <mxCell id="rMj7Xm5Ce88Mk3VK5p0u-12" value="" style="sketch=0;html=1;dashed=0;whitespace=wrap;fillColor=#2875E2;strokeColor=#ffffff;points=[[0.005,0.63,0],[0.1,0.2,0],[0.9,0.2,0],[0.5,0,0],[0.995,0.63,0],[0.72,0.99,0],[0.5,1,0],[0.28,0.99,0]];verticalLabelPosition=bottom;align=center;verticalAlign=top;shape=mxgraph.kubernetes.icon;prIcon=pod" parent="1" vertex="1">
                    <mxGeometry x="-86" y="267" width="39" height="38" as="geometry"/>
                </mxCell>
                <mxCell id="rMj7Xm5Ce88Mk3VK5p0u-14" value="" style="rounded=0;whiteSpace=wrap;html=1;sketch=1;curveFitting=1;jiggle=2;fillColor=#d5e8d4;strokeColor=#82b366;" parent="1" vertex="1">
                    <mxGeometry x="215" y="283" width="115" height="94" as="geometry"/>
                </mxCell>
                <mxCell id="rMj7Xm5Ce88Mk3VK5p0u-13" value="" style="sketch=0;html=1;dashed=0;whitespace=wrap;fillColor=#2875E2;strokeColor=#ffffff;points=[[0.005,0.63,0],[0.1,0.2,0],[0.9,0.2,0],[0.5,0,0],[0.995,0.63,0],[0.72,0.99,0],[0.5,1,0],[0.28,0.99,0]];verticalLabelPosition=bottom;align=center;verticalAlign=top;shape=mxgraph.kubernetes.icon;prIcon=pod" parent="1" vertex="1">
                    <mxGeometry x="200" y="259" width="39" height="38" as="geometry"/>
                </mxCell>
                <mxCell id="rMj7Xm5Ce88Mk3VK5p0u-15" value="" style="sketch=0;html=1;dashed=0;whitespace=wrap;fillColor=#2875E2;strokeColor=#ffffff;points=[[0.005,0.63,0],[0.1,0.2,0],[0.9,0.2,0],[0.5,0,0],[0.995,0.63,0],[0.72,0.99,0],[0.5,1,0],[0.28,0.99,0]];verticalLabelPosition=bottom;align=center;verticalAlign=top;shape=mxgraph.kubernetes.icon;prIcon=pod" parent="1" vertex="1">
                    <mxGeometry x="444" y="135" width="39" height="38" as="geometry"/>
                </mxCell>
                <mxCell id="rMj7Xm5Ce88Mk3VK5p0u-18" value="" style="sketch=0;html=1;dashed=0;whitespace=wrap;fillColor=#2875E2;strokeColor=#ffffff;points=[[0.005,0.63,0],[0.1,0.2,0],[0.9,0.2,0],[0.5,0,0],[0.995,0.63,0],[0.72,0.99,0],[0.5,1,0],[0.28,0.99,0]];verticalLabelPosition=bottom;align=center;verticalAlign=top;shape=mxgraph.kubernetes.icon;prIcon=node" parent="1" vertex="1">
                    <mxGeometry x="-155" y="82" width="50" height="48" as="geometry"/>
                </mxCell>
                <mxCell id="rMj7Xm5Ce88Mk3VK5p0u-19" value="" style="rounded=0;whiteSpace=wrap;html=1;sketch=1;dashed=1;strokeColor=#CCCCCC;fillColor=none;" parent="1" vertex="1">
                    <mxGeometry x="-96" y="147" width="197" height="412" as="geometry"/>
                </mxCell>
                <mxCell id="rMj7Xm5Ce88Mk3VK5p0u-21" value="daemonset" style="text;html=1;align=center;verticalAlign=middle;resizable=0;points=[];autosize=1;strokeColor=none;fillColor=none;dashed=1;sketch=1;" parent="1" vertex="1">
                    <mxGeometry x="-52" y="381" width="77" height="26" as="geometry"/>
                </mxCell>
                <mxCell id="rMj7Xm5Ce88Mk3VK5p0u-23" value="&lt;font data-font-src=&quot;https://fonts.googleapis.com/css?family=Architects+Daughter&quot; face=&quot;Architects Daughter&quot; style=&quot;font-size: 22px;&quot;&gt;Remote&lt;br&gt;Write&lt;br&gt;API&lt;/font&gt;" style="text;html=1;align=center;verticalAlign=middle;resizable=0;points=[];autosize=1;strokeColor=none;fillColor=none;fontColor=#13A813;fontStyle=3" parent="1" vertex="1">
                    <mxGeometry x="224.5" y="288" width="96" height="91" as="geometry"/>
                </mxCell>
                <mxCell id="rMj7Xm5Ce88Mk3VK5p0u-24" value="&lt;font style=&quot;font-size: 13px;&quot;&gt;ns: default&lt;/font&gt;" style="text;html=1;align=center;verticalAlign=middle;resizable=0;points=[];autosize=1;strokeColor=none;fillColor=none;fontColor=#000000;fontStyle=0;fontFamily=Courier New;" parent="1" vertex="1">
                    <mxGeometry x="-11" y="529" width="104" height="28" as="geometry"/>
                </mxCell>
                <mxCell id="rMj7Xm5Ce88Mk3VK5p0u-25" value="&lt;font style=&quot;font-size: 13px;&quot;&gt;ns: cirrus&lt;/font&gt;" style="text;html=1;align=center;verticalAlign=middle;resizable=0;points=[];autosize=1;strokeColor=none;fillColor=none;fontColor=#000000;fontStyle=0;fontFamily=Courier New;" parent="1" vertex="1">
                    <mxGeometry x="284" y="529" width="96" height="28" as="geometry"/>
                </mxCell>
                <mxCell id="rMj7Xm5Ce88Mk3VK5p0u-26" value="&lt;font style=&quot;font-size: 13px;&quot;&gt;ns: localstack&lt;/font&gt;" style="text;html=1;align=center;verticalAlign=middle;resizable=0;points=[];autosize=1;strokeColor=none;fillColor=none;fontColor=#000000;fontStyle=0;fontFamily=Courier New;" parent="1" vertex="1">
                    <mxGeometry x="529" y="531" width="127" height="28" as="geometry"/>
                </mxCell>
                <mxCell id="6" value="" style="group" parent="1" vertex="1" connectable="0">
                    <mxGeometry x="458.995" y="288.5" width="26.75" height="92.505" as="geometry"/>
                </mxCell>
                <mxCell id="4" value="" style="rounded=0;whiteSpace=wrap;html=1;rotation=-90;fontFamily=Architects Daughter;fontSource=https%3A%2F%2Ffonts.googleapis.com%2Fcss%3Ffamily%3DArchitects%2BDaughter;strokeColor=none;" parent="6" vertex="1">
                    <mxGeometry x="-32.875" y="32.879999999999995" width="92.5" height="26.75" as="geometry"/>
                </mxCell>
                <mxCell id="5" value="service" style="rounded=0;whiteSpace=wrap;html=1;sketch=1;curveFitting=1;jiggle=2;fillColor=#d5e8d4;strokeColor=#82b366;rotation=-90;fontFamily=Architects Daughter;fontSource=https%3A%2F%2Ffonts.googleapis.com%2Fcss%3Ffamily%3DArchitects%2BDaughter;" parent="6" vertex="1">
                    <mxGeometry x="-33.004999999999995" y="33.25" width="92.5" height="26" as="geometry"/>
                </mxCell>
                <mxCell id="8" value="" style="group" parent="1" vertex="1" connectable="0">
                    <mxGeometry x="159.995" y="283" width="26.75" height="92.505" as="geometry"/>
                </mxCell>
                <mxCell id="9" value="" style="rounded=0;whiteSpace=wrap;html=1;rotation=-90;fontFamily=Architects Daughter;fontSource=https%3A%2F%2Ffonts.googleapis.com%2Fcss%3Ffamily%3DArchitects%2BDaughter;strokeColor=none;" parent="8" vertex="1">
                    <mxGeometry x="-32.875" y="32.879999999999995" width="92.5" height="26.75" as="geometry"/>
                </mxCell>
                <mxCell id="10" value="service" style="rounded=0;whiteSpace=wrap;html=1;sketch=1;curveFitting=1;jiggle=2;fillColor=#d5e8d4;strokeColor=#82b366;rotation=-90;fontFamily=Architects Daughter;fontSource=https%3A%2F%2Ffonts.googleapis.com%2Fcss%3Ffamily%3DArchitects%2BDaughter;" parent="8" vertex="1">
                    <mxGeometry x="-33.004999999999995" y="33.25" width="92.5" height="26" as="geometry"/>
                </mxCell>
                <mxCell id="14" value="&lt;font style=&quot;font-size: 13px;&quot;&gt;k8s: node&lt;/font&gt;" style="text;html=1;align=center;verticalAlign=middle;resizable=0;points=[];autosize=1;strokeColor=none;fillColor=none;fontColor=#000000;fontStyle=0;fontFamily=Courier New;" parent="1" vertex="1">
                    <mxGeometry x="-105" y="98" width="88" height="28" as="geometry"/>
                </mxCell>
            </root>
        </mxGraphModel>
    </diagram>
    <diagram id="pf10UBLvWE0oK5h4vXmt" name="federated">
        <mxGraphModel dx="-192" dy="2832" grid="0" gridSize="10" guides="1" tooltips="1" connect="1" arrows="1" fold="1" page="0" pageScale="1" pageWidth="850" pageHeight="1100" math="0" shadow="0">
            <root>
                <mxCell id="0"/>
                <mxCell id="1" parent="0"/>
                <mxCell id="I1CzsbzMwLEubC7tiXVQ-2" value="Kubernetes Control Plane" style="text;html=1;align=center;verticalAlign=middle;resizable=0;points=[];autosize=1;strokeColor=none;fillColor=none;fontSize=43;fontFamily=Architects Daughter;fontColor=#B3B3B3;" vertex="1" parent="1">
                    <mxGeometry x="3406" y="-439" width="527" height="64" as="geometry"/>
                </mxCell>
                <mxCell id="I1CzsbzMwLEubC7tiXVQ-3" value="" style="rounded=0;whiteSpace=wrap;html=1;strokeColor=default;fontFamily=Architects Daughter;fontSource=https%3A%2F%2Ffonts.googleapis.com%2Fcss%3Ffamily%3DArchitects%2BDaughter;fontSize=21;fillColor=none;strokeWidth=1;fontColor=#ffffff;dashed=1;dashPattern=12 12;" vertex="1" parent="1">
                    <mxGeometry x="2418" y="-904" width="1609" height="1014" as="geometry"/>
                </mxCell>
                <mxCell id="I1CzsbzMwLEubC7tiXVQ-4" value="" style="rounded=0;whiteSpace=wrap;html=1;strokeColor=#006EAF;fontFamily=Architects Daughter;fontSource=https%3A%2F%2Ffonts.googleapis.com%2Fcss%3Ffamily%3DArchitects%2BDaughter;fontSize=43;fillColor=none;strokeWidth=3;fontColor=#ffffff;" vertex="1" parent="1">
                    <mxGeometry x="3330" y="-185" width="635" height="264" as="geometry"/>
                </mxCell>
                <mxCell id="I1CzsbzMwLEubC7tiXVQ-5" value="" style="rounded=0;whiteSpace=wrap;html=1;strokeColor=#006EAF;fontFamily=Architects Daughter;fontSource=https%3A%2F%2Ffonts.googleapis.com%2Fcss%3Ffamily%3DArchitects%2BDaughter;fontSize=43;fillColor=none;strokeWidth=3;fontColor=#ffffff;" vertex="1" parent="1">
                    <mxGeometry x="3323" y="-791" width="634" height="225" as="geometry"/>
                </mxCell>
                <mxCell id="I1CzsbzMwLEubC7tiXVQ-6" value="" style="rounded=0;whiteSpace=wrap;html=1;strokeColor=#B3B3B3;fontFamily=Architects Daughter;fontSource=https%3A%2F%2Ffonts.googleapis.com%2Fcss%3Ffamily%3DArchitects%2BDaughter;fontSize=43;fillColor=none;strokeWidth=1;fontColor=#ffffff;dashed=1;dashPattern=12 12;sketch=1;curveFitting=1;jiggle=2;" vertex="1" parent="1">
                    <mxGeometry x="3384" y="-443" width="561" height="175" as="geometry"/>
                </mxCell>
                <mxCell id="I1CzsbzMwLEubC7tiXVQ-7" style="html=1;fontSize=14;fontColor=default;strokeWidth=3;fillColor=#d5e8d4;strokeColor=#999999;dashed=1;" edge="1" parent="1" target="I1CzsbzMwLEubC7tiXVQ-10">
                    <mxGeometry relative="1" as="geometry">
                        <mxPoint x="3695.790674603175" y="-350" as="sourcePoint"/>
                    </mxGeometry>
                </mxCell>
                <mxCell id="I1CzsbzMwLEubC7tiXVQ-8" value="&lt;font face=&quot;Architects Daughter&quot;&gt;API&lt;/font&gt;" style="rounded=0;whiteSpace=wrap;html=1;fillColor=#000000;fontColor=#ffffff;strokeColor=#000000;fontSize=27;" vertex="1" parent="1">
                    <mxGeometry x="3555" y="-359" width="207" height="65" as="geometry"/>
                </mxCell>
                <mxCell id="I1CzsbzMwLEubC7tiXVQ-10" value="&lt;font data-font-src=&quot;https://fonts.googleapis.com/css?family=Architects+Daughter&quot; face=&quot;Architects Daughter&quot; style=&quot;font-size: 27px;&quot;&gt;cAdvisor&lt;/font&gt;" style="rounded=0;whiteSpace=wrap;html=1;fillColor=#4D4D4D;fontColor=#ffffff;strokeColor=#2D7600;fontSize=27;strokeWidth=4;" vertex="1" parent="1">
                    <mxGeometry x="3587.5" y="-163" width="207" height="42" as="geometry"/>
                </mxCell>
                <mxCell id="I1CzsbzMwLEubC7tiXVQ-12" value="&lt;b&gt;&lt;font style=&quot;font-size: 43px;&quot;&gt;. . .&lt;/font&gt;&lt;/b&gt;" style="text;html=1;align=center;verticalAlign=middle;resizable=0;points=[];autosize=1;strokeColor=none;fillColor=none;fontSize=27;fontFamily=Architects Daughter;fontSource=https%3A%2F%2Ffonts.googleapis.com%2Fcss%3Ffamily%3DArchitects%2BDaughter;" vertex="1" parent="1">
                    <mxGeometry x="3502" y="-91" width="71" height="64" as="geometry"/>
                </mxCell>
                <mxCell id="I1CzsbzMwLEubC7tiXVQ-13" value="&lt;font style=&quot;font-size: 22px;&quot;&gt;Worker Node&lt;/font&gt;" style="text;html=1;align=center;verticalAlign=middle;resizable=0;points=[];autosize=1;strokeColor=none;fillColor=none;fontSize=43;fontFamily=Architects Daughter;fontColor=default;" vertex="1" parent="1">
                    <mxGeometry x="3337" y="3" width="159" height="64" as="geometry"/>
                </mxCell>
                <mxCell id="I1CzsbzMwLEubC7tiXVQ-14" value="&lt;font data-font-src=&quot;https://fonts.googleapis.com/css?family=Architects+Daughter&quot; face=&quot;Architects Daughter&quot; style=&quot;font-size: 27px;&quot;&gt;cAdvisor&lt;/font&gt;" style="rounded=0;whiteSpace=wrap;html=1;fillColor=#4D4D4D;fontColor=#ffffff;strokeColor=#2D7600;fontSize=27;strokeWidth=4;" vertex="1" parent="1">
                    <mxGeometry x="3597" y="-626" width="207" height="38" as="geometry"/>
                </mxCell>
                <mxCell id="I1CzsbzMwLEubC7tiXVQ-16" value="&lt;b&gt;&lt;font style=&quot;font-size: 43px;&quot;&gt;. . .&lt;/font&gt;&lt;/b&gt;" style="text;html=1;align=center;verticalAlign=middle;resizable=0;points=[];autosize=1;strokeColor=none;fillColor=none;fontSize=27;fontFamily=Architects Daughter;fontSource=https%3A%2F%2Ffonts.googleapis.com%2Fcss%3Ffamily%3DArchitects%2BDaughter;" vertex="1" parent="1">
                    <mxGeometry x="3508" y="-746" width="71" height="64" as="geometry"/>
                </mxCell>
                <mxCell id="I1CzsbzMwLEubC7tiXVQ-17" value="&lt;font style=&quot;font-size: 22px;&quot;&gt;Worker Node&lt;/font&gt;" style="text;html=1;align=center;verticalAlign=middle;resizable=0;points=[];autosize=1;strokeColor=none;fillColor=none;fontSize=43;fontFamily=Architects Daughter;fontColor=default;" vertex="1" parent="1">
                    <mxGeometry x="3332" y="-639" width="159" height="64" as="geometry"/>
                </mxCell>
                <mxCell id="I1CzsbzMwLEubC7tiXVQ-19" style="html=1;fontSize=14;fontColor=default;strokeWidth=3;fillColor=#d5e8d4;strokeColor=#999999;dashed=1;" edge="1" parent="1" target="I1CzsbzMwLEubC7tiXVQ-14">
                    <mxGeometry relative="1" as="geometry">
                        <mxPoint x="3698.500000000001" y="-415" as="sourcePoint"/>
                        <mxPoint x="3581.000000000001" y="-149" as="targetPoint"/>
                    </mxGeometry>
                </mxCell>
                <mxCell id="I1CzsbzMwLEubC7tiXVQ-20" value="&lt;font data-font-src=&quot;https://fonts.googleapis.com/css?family=Architects+Daughter&quot; face=&quot;Architects Daughter&quot;&gt;KUBERNETES CLUSTER&lt;/font&gt;" style="text;html=1;align=center;verticalAlign=middle;resizable=0;points=[];autosize=1;strokeColor=none;fillColor=none;fontSize=35;" vertex="1" parent="1">
                    <mxGeometry x="2426" y="-891" width="410" height="56" as="geometry"/>
                </mxCell>
                <mxCell id="I1CzsbzMwLEubC7tiXVQ-21" style="html=1;fontSize=14;fontColor=default;strokeWidth=3;fillColor=#d5e8d4;strokeColor=#999999;dashed=1;exitX=0.25;exitY=0;exitDx=0;exitDy=0;edgeStyle=orthogonalEdgeStyle;" edge="1" parent="1" source="I1CzsbzMwLEubC7tiXVQ-8" target="I1CzsbzMwLEubC7tiXVQ-31">
                    <mxGeometry relative="1" as="geometry">
                        <mxPoint x="3545.5330000000004" y="-401.9500000000003" as="sourcePoint"/>
                        <mxPoint x="3136.85361923649" y="566" as="targetPoint"/>
                        <Array as="points">
                            <mxPoint x="3609" y="-359"/>
                            <mxPoint x="3609" y="-486"/>
                            <mxPoint x="3075" y="-486"/>
                        </Array>
                    </mxGeometry>
                </mxCell>
                <mxCell id="I1CzsbzMwLEubC7tiXVQ-22" value="" style="rounded=0;whiteSpace=wrap;html=1;strokeColor=#006EAF;fontFamily=Architects Daughter;fontSource=https%3A%2F%2Ffonts.googleapis.com%2Fcss%3Ffamily%3DArchitects%2BDaughter;fontSize=43;fillColor=none;strokeWidth=3;fontColor=#ffffff;" vertex="1" parent="1">
                    <mxGeometry x="2574" y="-185" width="635" height="267" as="geometry"/>
                </mxCell>
                <mxCell id="I1CzsbzMwLEubC7tiXVQ-24" value="&lt;font data-font-src=&quot;https://fonts.googleapis.com/css?family=Architects+Daughter&quot; face=&quot;Architects Daughter&quot; style=&quot;font-size: 27px;&quot;&gt;cAdvisor&lt;/font&gt;" style="rounded=0;whiteSpace=wrap;html=1;fillColor=#4D4D4D;fontColor=#ffffff;strokeColor=#2D7600;fontSize=27;strokeWidth=4;" vertex="1" parent="1">
                    <mxGeometry x="2975" y="-163" width="207" height="42" as="geometry"/>
                </mxCell>
                <mxCell id="I1CzsbzMwLEubC7tiXVQ-25" style="edgeStyle=orthogonalEdgeStyle;html=1;strokeWidth=3;fontFamily=Architects Daughter;fontSource=https%3A%2F%2Ffonts.googleapis.com%2Fcss%3Ffamily%3DArchitects%2BDaughter;fontSize=22;dashed=1;entryX=0;entryY=0.5;entryDx=0;entryDy=0;strokeColor=#999999;" edge="1" parent="1" source="I1CzsbzMwLEubC7tiXVQ-26" target="I1CzsbzMwLEubC7tiXVQ-8">
                    <mxGeometry relative="1" as="geometry">
                        <Array as="points">
                            <mxPoint x="2721" y="-60"/>
                            <mxPoint x="2721" y="-326"/>
                        </Array>
                    </mxGeometry>
                </mxCell>
                <mxCell id="I1CzsbzMwLEubC7tiXVQ-26" value="&lt;font data-font-src=&quot;https://fonts.googleapis.com/css?family=Architects+Daughter&quot; face=&quot;Architects Daughter&quot; style=&quot;font-size: 27px;&quot;&gt;KSM&lt;/font&gt;" style="rounded=0;whiteSpace=wrap;html=1;fillColor=#e1d5e7;strokeColor=#9673a6;fontSize=27;" vertex="1" parent="1">
                    <mxGeometry x="2597" y="-108" width="85" height="96" as="geometry"/>
                </mxCell>
                <mxCell id="I1CzsbzMwLEubC7tiXVQ-27" value="&lt;b&gt;&lt;font style=&quot;font-size: 43px;&quot;&gt;. . .&lt;/font&gt;&lt;/b&gt;" style="text;html=1;align=center;verticalAlign=middle;resizable=0;points=[];autosize=1;strokeColor=none;fillColor=none;fontSize=27;fontFamily=Architects Daughter;fontSource=https%3A%2F%2Ffonts.googleapis.com%2Fcss%3Ffamily%3DArchitects%2BDaughter;" vertex="1" parent="1">
                    <mxGeometry x="2743" y="-91" width="71" height="64" as="geometry"/>
                </mxCell>
                <mxCell id="I1CzsbzMwLEubC7tiXVQ-28" value="&lt;font style=&quot;font-size: 22px;&quot;&gt;Worker Node&lt;/font&gt;" style="text;html=1;align=center;verticalAlign=middle;resizable=0;points=[];autosize=1;strokeColor=none;fillColor=none;fontSize=43;fontFamily=Architects Daughter;fontColor=default;" vertex="1" parent="1">
                    <mxGeometry x="2589" y="9" width="159" height="64" as="geometry"/>
                </mxCell>
                <mxCell id="I1CzsbzMwLEubC7tiXVQ-29" value="" style="rounded=0;whiteSpace=wrap;html=1;strokeColor=#006EAF;fontFamily=Architects Daughter;fontSource=https%3A%2F%2Ffonts.googleapis.com%2Fcss%3Ffamily%3DArchitects%2BDaughter;fontSize=43;fillColor=none;strokeWidth=3;fontColor=#ffffff;" vertex="1" parent="1">
                    <mxGeometry x="2571" y="-790" width="634" height="221" as="geometry"/>
                </mxCell>
                <mxCell id="I1CzsbzMwLEubC7tiXVQ-31" value="&lt;font data-font-src=&quot;https://fonts.googleapis.com/css?family=Architects+Daughter&quot; face=&quot;Architects Daughter&quot; style=&quot;font-size: 27px;&quot;&gt;cAdvisor&lt;/font&gt;" style="rounded=0;whiteSpace=wrap;html=1;fillColor=#4D4D4D;fontColor=#ffffff;strokeColor=#2D7600;fontSize=27;strokeWidth=4;" vertex="1" parent="1">
                    <mxGeometry x="2973" y="-621" width="207" height="37" as="geometry"/>
                </mxCell>
                <mxCell id="I1CzsbzMwLEubC7tiXVQ-32" value="&lt;b&gt;&lt;font style=&quot;font-size: 43px;&quot;&gt;. . .&lt;/font&gt;&lt;/b&gt;" style="text;html=1;align=center;verticalAlign=middle;resizable=0;points=[];autosize=1;strokeColor=none;fillColor=none;fontSize=27;fontFamily=Architects Daughter;fontSource=https%3A%2F%2Ffonts.googleapis.com%2Fcss%3Ffamily%3DArchitects%2BDaughter;" vertex="1" parent="1">
                    <mxGeometry x="2714" y="-733" width="71" height="64" as="geometry"/>
                </mxCell>
                <mxCell id="I1CzsbzMwLEubC7tiXVQ-33" value="&lt;font style=&quot;font-size: 22px;&quot;&gt;Worker Node&lt;/font&gt;" style="text;html=1;align=center;verticalAlign=middle;resizable=0;points=[];autosize=1;strokeColor=none;fillColor=none;fontSize=43;fontFamily=Architects Daughter;fontColor=default;" vertex="1" parent="1">
                    <mxGeometry x="2596" y="-637" width="159" height="64" as="geometry"/>
                </mxCell>
                <mxCell id="I1CzsbzMwLEubC7tiXVQ-34" value="&lt;font data-font-src=&quot;https://fonts.googleapis.com/css?family=Architects+Daughter&quot; face=&quot;Architects Daughter&quot; style=&quot;&quot;&gt;Agent&lt;br&gt;&lt;font style=&quot;font-size: 19px;&quot;&gt;ksm&lt;/font&gt;&lt;br&gt;&lt;/font&gt;" style="rounded=0;whiteSpace=wrap;html=1;fillColor=#60a917;fontColor=#ffffff;strokeColor=#2D7600;fontSize=27;" vertex="1" parent="1">
                    <mxGeometry x="2596" y="-742" width="85" height="96" as="geometry"/>
                </mxCell>
                <mxCell id="I1CzsbzMwLEubC7tiXVQ-35" style="html=1;fontSize=14;fontColor=default;strokeWidth=3;fillColor=#d5e8d4;strokeColor=#999999;dashed=1;edgeStyle=orthogonalEdgeStyle;" edge="1" parent="1" source="I1CzsbzMwLEubC7tiXVQ-8" target="I1CzsbzMwLEubC7tiXVQ-24">
                    <mxGeometry relative="1" as="geometry">
                        <mxPoint x="3477.368852459016" y="-335" as="sourcePoint"/>
                        <mxPoint x="3465.631147540983" y="-156" as="targetPoint"/>
                        <Array as="points">
                            <mxPoint x="3606" y="-224"/>
                            <mxPoint x="3089" y="-224"/>
                        </Array>
                    </mxGeometry>
                </mxCell>
                <mxCell id="I1CzsbzMwLEubC7tiXVQ-36" style="edgeStyle=orthogonalEdgeStyle;html=1;fillColor=#e1d5e7;strokeColor=#9673a6;strokeWidth=5;" edge="1" parent="1" source="I1CzsbzMwLEubC7tiXVQ-34" target="I1CzsbzMwLEubC7tiXVQ-26">
                    <mxGeometry relative="1" as="geometry">
                        <mxPoint x="2644.4871794871797" y="-896.0000000000002" as="sourcePoint"/>
                        <mxPoint x="3376" y="-367.5" as="targetPoint"/>
                        <Array as="points">
                            <mxPoint x="2530" y="-700"/>
                            <mxPoint x="2530" y="-60"/>
                        </Array>
                    </mxGeometry>
                </mxCell>
                <mxCell id="I1CzsbzMwLEubC7tiXVQ-37" value="FEDERATED AGENT MODE" style="text;html=1;align=center;verticalAlign=middle;resizable=0;points=[];autosize=1;strokeColor=none;fillColor=none;fontSize=56;fontFamily=Architects Daughter;fontSource=https%3A%2F%2Ffonts.googleapis.com%2Fcss%3Ffamily%3DArchitects%2BDaughter;" vertex="1" parent="1">
                    <mxGeometry x="2583" y="-435" width="715" height="79" as="geometry"/>
                </mxCell>
                <mxCell id="I1CzsbzMwLEubC7tiXVQ-38" style="edgeStyle=orthogonalEdgeStyle;html=1;strokeColor=#009900;strokeWidth=4;fontFamily=Architects Daughter;fontSource=https%3A%2F%2Ffonts.googleapis.com%2Fcss%3Ffamily%3DArchitects%2BDaughter;fontSize=12;fillColor=#60a917;startArrow=none;" edge="1" parent="1" source="I1CzsbzMwLEubC7tiXVQ-58" target="I1CzsbzMwLEubC7tiXVQ-8">
                    <mxGeometry relative="1" as="geometry">
                        <Array as="points">
                            <mxPoint x="3877" y="-508"/>
                            <mxPoint x="3716" y="-508"/>
                        </Array>
                        <mxPoint x="3877.6" y="-899" as="sourcePoint"/>
                    </mxGeometry>
                </mxCell>
                <mxCell id="I1CzsbzMwLEubC7tiXVQ-40" style="edgeStyle=orthogonalEdgeStyle;html=1;entryX=0.313;entryY=0.034;entryDx=0;entryDy=0;entryPerimeter=0;strokeColor=#009900;strokeWidth=4;fontFamily=Architects Daughter;fontSource=https%3A%2F%2Ffonts.googleapis.com%2Fcss%3Ffamily%3DArchitects%2BDaughter;fontSize=12;" edge="1" parent="1" source="I1CzsbzMwLEubC7tiXVQ-60" target="I1CzsbzMwLEubC7tiXVQ-8">
                    <mxGeometry relative="1" as="geometry">
                        <Array as="points">
                            <mxPoint x="3302" y="-686"/>
                            <mxPoint x="3302" y="-506"/>
                            <mxPoint x="3622" y="-506"/>
                            <mxPoint x="3622" y="-357"/>
                        </Array>
                        <mxPoint x="3167" y="-980" as="sourcePoint"/>
                    </mxGeometry>
                </mxCell>
                <mxCell id="I1CzsbzMwLEubC7tiXVQ-42" style="edgeStyle=orthogonalEdgeStyle;html=1;strokeColor=#009900;strokeWidth=4;fontFamily=Architects Daughter;fontSource=https%3A%2F%2Ffonts.googleapis.com%2Fcss%3Ffamily%3DArchitects%2BDaughter;fontSize=12;" edge="1" parent="1" source="I1CzsbzMwLEubC7tiXVQ-43" target="I1CzsbzMwLEubC7tiXVQ-8">
                    <mxGeometry relative="1" as="geometry">
                        <Array as="points">
                            <mxPoint x="3887" y="-206"/>
                            <mxPoint x="3715" y="-206"/>
                        </Array>
                    </mxGeometry>
                </mxCell>
                <mxCell id="I1CzsbzMwLEubC7tiXVQ-43" value="&lt;font data-font-src=&quot;https://fonts.googleapis.com/css?family=Architects+Daughter&quot; face=&quot;Architects Daughter&quot; style=&quot;font-size: 27px;&quot;&gt;Agent&lt;br style=&quot;border-color: var(--border-color);&quot;&gt;&lt;font style=&quot;border-color: var(--border-color); font-size: 17px;&quot;&gt;cAdvisor&lt;/font&gt;&lt;br&gt;&lt;/font&gt;" style="rounded=0;whiteSpace=wrap;html=1;fillColor=#60a917;fontColor=#ffffff;strokeColor=#2D7600;fontSize=27;" vertex="1" parent="1">
                    <mxGeometry x="3840" y="-112" width="85" height="96" as="geometry"/>
                </mxCell>
                <mxCell id="I1CzsbzMwLEubC7tiXVQ-44" style="edgeStyle=orthogonalEdgeStyle;html=1;strokeColor=#009900;strokeWidth=4;fontFamily=Architects Daughter;fontSource=https%3A%2F%2Ffonts.googleapis.com%2Fcss%3Ffamily%3DArchitects%2BDaughter;fontSize=12;" edge="1" parent="1" source="I1CzsbzMwLEubC7tiXVQ-55" target="I1CzsbzMwLEubC7tiXVQ-8">
                    <mxGeometry relative="1" as="geometry">
                        <Array as="points">
                            <mxPoint x="3249" y="-55"/>
                            <mxPoint x="3249" y="-208"/>
                            <mxPoint x="3620" y="-208"/>
                        </Array>
                        <mxPoint x="3173" y="-55" as="sourcePoint"/>
                    </mxGeometry>
                </mxCell>
                <mxCell id="I1CzsbzMwLEubC7tiXVQ-46" value="&lt;b&gt;&lt;font style=&quot;font-size: 43px;&quot;&gt;. . .&lt;/font&gt;&lt;/b&gt;" style="text;html=1;align=center;verticalAlign=middle;resizable=0;points=[];autosize=1;strokeColor=none;fillColor=none;fontSize=27;fontFamily=Architects Daughter;fontSource=https%3A%2F%2Ffonts.googleapis.com%2Fcss%3Ffamily%3DArchitects%2BDaughter;" vertex="1" parent="1">
                    <mxGeometry x="3733" y="-88" width="71" height="64" as="geometry"/>
                </mxCell>
                <mxCell id="I1CzsbzMwLEubC7tiXVQ-47" value="&lt;b&gt;&lt;font style=&quot;font-size: 43px;&quot;&gt;. . .&lt;/font&gt;&lt;/b&gt;" style="text;html=1;align=center;verticalAlign=middle;resizable=0;points=[];autosize=1;strokeColor=none;fillColor=none;fontSize=27;fontFamily=Architects Daughter;fontSource=https%3A%2F%2Ffonts.googleapis.com%2Fcss%3Ffamily%3DArchitects%2BDaughter;" vertex="1" parent="1">
                    <mxGeometry x="2959" y="-88.5" width="71" height="64" as="geometry"/>
                </mxCell>
                <mxCell id="I1CzsbzMwLEubC7tiXVQ-48" value="&lt;b&gt;&lt;font style=&quot;font-size: 43px;&quot;&gt;. . .&lt;/font&gt;&lt;/b&gt;" style="text;html=1;align=center;verticalAlign=middle;resizable=0;points=[];autosize=1;strokeColor=none;fillColor=none;fontSize=27;fontFamily=Architects Daughter;fontSource=https%3A%2F%2Ffonts.googleapis.com%2Fcss%3Ffamily%3DArchitects%2BDaughter;" vertex="1" parent="1">
                    <mxGeometry x="3741.5" y="-738" width="71" height="64" as="geometry"/>
                </mxCell>
                <mxCell id="I1CzsbzMwLEubC7tiXVQ-49" value="&lt;b&gt;&lt;font style=&quot;font-size: 43px;&quot;&gt;. . .&lt;/font&gt;&lt;/b&gt;" style="text;html=1;align=center;verticalAlign=middle;resizable=0;points=[];autosize=1;strokeColor=none;fillColor=none;fontSize=27;fontFamily=Architects Daughter;fontSource=https%3A%2F%2Ffonts.googleapis.com%2Fcss%3Ffamily%3DArchitects%2BDaughter;" vertex="1" parent="1">
                    <mxGeometry x="2955" y="-738" width="71" height="64" as="geometry"/>
                </mxCell>
                <mxCell id="I1CzsbzMwLEubC7tiXVQ-51" value="&lt;font data-font-src=&quot;https://fonts.googleapis.com/css?family=Architects+Daughter&quot; face=&quot;Architects Daughter&quot; style=&quot;font-size: 27px;&quot;&gt;Pod&lt;/font&gt;" style="rounded=0;whiteSpace=wrap;html=1;fillColor=#1ba1e2;fontColor=#ffffff;strokeColor=#1BA1E2;fontSize=27;opacity=20;" vertex="1" parent="1">
                    <mxGeometry x="2849" y="-104" width="85" height="95" as="geometry"/>
                </mxCell>
                <mxCell id="I1CzsbzMwLEubC7tiXVQ-53" value="&lt;font data-font-src=&quot;https://fonts.googleapis.com/css?family=Architects+Daughter&quot; face=&quot;Architects Daughter&quot; style=&quot;font-size: 27px;&quot;&gt;Pod&lt;/font&gt;" style="rounded=0;whiteSpace=wrap;html=1;fillColor=#1ba1e2;fontColor=#ffffff;strokeColor=#1BA1E2;fontSize=27;opacity=20;" vertex="1" parent="1">
                    <mxGeometry x="3369" y="-106" width="85" height="95" as="geometry"/>
                </mxCell>
                <mxCell id="I1CzsbzMwLEubC7tiXVQ-54" value="&lt;font data-font-src=&quot;https://fonts.googleapis.com/css?family=Architects+Daughter&quot; face=&quot;Architects Daughter&quot; style=&quot;font-size: 27px;&quot;&gt;Pod&lt;/font&gt;" style="rounded=0;whiteSpace=wrap;html=1;fillColor=#1ba1e2;fontColor=#ffffff;strokeColor=#1BA1E2;fontSize=27;opacity=20;" vertex="1" parent="1">
                    <mxGeometry x="3614" y="-106.5" width="85" height="95" as="geometry"/>
                </mxCell>
                <mxCell id="I1CzsbzMwLEubC7tiXVQ-55" value="&lt;font data-font-src=&quot;https://fonts.googleapis.com/css?family=Architects+Daughter&quot; face=&quot;Architects Daughter&quot; style=&quot;font-size: 27px;&quot;&gt;Agent&lt;br style=&quot;border-color: var(--border-color);&quot;&gt;&lt;font style=&quot;border-color: var(--border-color); font-size: 17px;&quot;&gt;cAdvisor&lt;/font&gt;&lt;br&gt;&lt;/font&gt;" style="rounded=0;whiteSpace=wrap;html=1;fillColor=#60a917;fontColor=#ffffff;strokeColor=#2D7600;fontSize=27;" vertex="1" parent="1">
                    <mxGeometry x="3058" y="-104" width="85" height="96" as="geometry"/>
                </mxCell>
                <mxCell id="I1CzsbzMwLEubC7tiXVQ-56" value="&lt;font data-font-src=&quot;https://fonts.googleapis.com/css?family=Architects+Daughter&quot; face=&quot;Architects Daughter&quot; style=&quot;font-size: 27px;&quot;&gt;Pod&lt;/font&gt;" style="rounded=0;whiteSpace=wrap;html=1;fillColor=#1ba1e2;fontColor=#ffffff;strokeColor=#1BA1E2;fontSize=27;opacity=20;" vertex="1" parent="1">
                    <mxGeometry x="2830" y="-744" width="85" height="95" as="geometry"/>
                </mxCell>
                <mxCell id="I1CzsbzMwLEubC7tiXVQ-57" value="&lt;font data-font-src=&quot;https://fonts.googleapis.com/css?family=Architects+Daughter&quot; face=&quot;Architects Daughter&quot; style=&quot;font-size: 27px;&quot;&gt;Pod&lt;/font&gt;" style="rounded=0;whiteSpace=wrap;html=1;fillColor=#1ba1e2;fontColor=#ffffff;strokeColor=#1BA1E2;fontSize=27;opacity=20;" vertex="1" parent="1">
                    <mxGeometry x="3629" y="-753.5" width="85" height="95" as="geometry"/>
                </mxCell>
                <mxCell id="I1CzsbzMwLEubC7tiXVQ-58" value="&lt;font data-font-src=&quot;https://fonts.googleapis.com/css?family=Architects+Daughter&quot; face=&quot;Architects Daughter&quot; style=&quot;font-size: 27px;&quot;&gt;Agent&lt;br style=&quot;border-color: var(--border-color);&quot;&gt;&lt;font style=&quot;border-color: var(--border-color); font-size: 17px;&quot;&gt;cAdvisor&lt;/font&gt;&lt;br&gt;&lt;/font&gt;" style="rounded=0;whiteSpace=wrap;html=1;fillColor=#60a917;fontColor=#ffffff;strokeColor=#2D7600;fontSize=27;" vertex="1" parent="1">
                    <mxGeometry x="3830" y="-749" width="85" height="96" as="geometry"/>
                </mxCell>
                <mxCell id="I1CzsbzMwLEubC7tiXVQ-59" value="&lt;font data-font-src=&quot;https://fonts.googleapis.com/css?family=Architects+Daughter&quot; face=&quot;Architects Daughter&quot; style=&quot;font-size: 27px;&quot;&gt;Pod&lt;/font&gt;" style="rounded=0;whiteSpace=wrap;html=1;fillColor=#1ba1e2;fontColor=#ffffff;strokeColor=#1BA1E2;fontSize=27;opacity=20;" vertex="1" parent="1">
                    <mxGeometry x="3376" y="-753.5" width="85" height="95" as="geometry"/>
                </mxCell>
                <mxCell id="I1CzsbzMwLEubC7tiXVQ-60" value="&lt;font data-font-src=&quot;https://fonts.googleapis.com/css?family=Architects+Daughter&quot; face=&quot;Architects Daughter&quot; style=&quot;font-size: 27px;&quot;&gt;Agent&lt;br style=&quot;border-color: var(--border-color);&quot;&gt;&lt;font style=&quot;border-color: var(--border-color); font-size: 17px;&quot;&gt;cAdvisor&lt;/font&gt;&lt;br&gt;&lt;/font&gt;" style="rounded=0;whiteSpace=wrap;html=1;fillColor=#60a917;fontColor=#ffffff;strokeColor=#2D7600;fontSize=27;" vertex="1" parent="1">
                    <mxGeometry x="3060" y="-742" width="85" height="96" as="geometry"/>
                </mxCell>
            </root>
        </mxGraphModel>
    </diagram>
    <diagram id="UJbioW1Q2YZIJl-Sd1DO" name="lambda">
        <mxGraphModel dx="1744" dy="816" grid="0" gridSize="10" guides="1" tooltips="1" connect="1" arrows="1" fold="1" page="0" pageScale="1" pageWidth="850" pageHeight="1100" background="none" math="0" shadow="0">
            <root>
                <mxCell id="0"/>
                <mxCell id="1" parent="0"/>
                <mxCell id="25" value="" style="rounded=0;whiteSpace=wrap;html=1;sketch=1;dashed=1;strokeColor=#CCCCCC;fillColor=none;" vertex="1" parent="1">
                    <mxGeometry x="459" y="145" width="197" height="412" as="geometry"/>
                </mxCell>
                <mxCell id="10" style="edgeStyle=none;html=1;" edge="1" parent="1" source="2" target="4">
                    <mxGeometry relative="1" as="geometry"/>
                </mxCell>
                <mxCell id="2" value="Remote Write" style="outlineConnect=0;fontColor=#232F3E;gradientColor=none;fillColor=#3F8624;strokeColor=none;dashed=0;verticalLabelPosition=bottom;verticalAlign=top;align=center;html=1;fontSize=12;fontStyle=0;aspect=fixed;pointerEvents=1;shape=mxgraph.aws4.lambda_function;" vertex="1" parent="1">
                    <mxGeometry x="330" y="293" width="78" height="78" as="geometry"/>
                </mxCell>
                <mxCell id="4" value="Bucket" style="outlineConnect=0;fontColor=#232F3E;gradientColor=none;fillColor=#3F8624;strokeColor=none;dashed=0;verticalLabelPosition=bottom;verticalAlign=top;align=center;html=1;fontSize=12;fontStyle=0;aspect=fixed;pointerEvents=1;shape=mxgraph.aws4.bucket;" vertex="1" parent="1">
                    <mxGeometry x="520" y="293" width="75" height="78" as="geometry"/>
                </mxCell>
                <mxCell id="9" style="edgeStyle=none;html=1;" edge="1" parent="1" source="5" target="2">
                    <mxGeometry relative="1" as="geometry"/>
                </mxCell>
                <mxCell id="5" value="API Gateway" style="outlineConnect=0;fontColor=#232F3E;gradientColor=none;fillColor=#B0084D;strokeColor=none;dashed=0;verticalLabelPosition=bottom;verticalAlign=top;align=center;html=1;fontSize=12;fontStyle=0;aspect=fixed;pointerEvents=1;shape=mxgraph.aws4.endpoint;" vertex="1" parent="1">
                    <mxGeometry x="160" y="293" width="78" height="78" as="geometry"/>
                </mxCell>
                <mxCell id="8" style="edgeStyle=none;html=1;" edge="1" parent="1" source="13" target="5">
                    <mxGeometry relative="1" as="geometry">
                        <mxPoint x="-163" y="313" as="sourcePoint"/>
                    </mxGeometry>
                </mxCell>
                <mxCell id="14" value="" style="group" vertex="1" connectable="0" parent="1">
                    <mxGeometry x="-65" y="285" width="115" height="94" as="geometry"/>
                </mxCell>
                <mxCell id="13" value="" style="rounded=0;whiteSpace=wrap;html=1;sketch=1;curveFitting=1;jiggle=2;" vertex="1" parent="14">
                    <mxGeometry width="115" height="94" as="geometry"/>
                </mxCell>
                <mxCell id="12" value="" style="shape=image;verticalLabelPosition=bottom;labelBackgroundColor=default;verticalAlign=top;aspect=fixed;imageAspect=0;image=https://seeklogo.com/images/P/prometheus-monitoring-system-logo-3C07B67C00-seeklogo.com.png;" vertex="1" parent="14">
                    <mxGeometry x="16" y="9" width="86.05" height="74" as="geometry"/>
                </mxCell>
                <mxCell id="26" value="" style="shape=image;verticalLabelPosition=bottom;labelBackgroundColor=default;verticalAlign=top;aspect=fixed;imageAspect=0;image=https://support.localstack.cloud/hs-fs/hubfs/LocalStack%20logos/localstack-logo-horizontal-color.png?width=468&amp;height=178&amp;name=localstack-logo-horizontal-color.png;" vertex="1" parent="1">
                    <mxGeometry x="461" y="488" width="181.42" height="69" as="geometry"/>
                </mxCell>
            </root>
        </mxGraphModel>
    </diagram>
</mxfile>